<?xml version="1.0" encoding="UTF-8"?>
<svg id="BACKGROUND" xmlns="http://www.w3.org/2000/svg" xmlns:xlink="http://www.w3.org/1999/xlink" viewBox="0 0 50 50">
  <defs>
    <style>
      .cls-1 {
        fill: url(#Degradado_sin_nombre_3);
      }
    </style>
    <linearGradient id="Degradado_sin_nombre_3" data-name="Degradado sin nombre 3" x1="8.94" y1="25" x2="41.06" y2="25" gradientUnits="userSpaceOnUse">
      <stop offset="0" stop-color="#bc3aff"/>
      <stop offset="1" stop-color="#bc3aff"/>
    </linearGradient>
  </defs>
  <path class="cls-1" d="M41.06,6.79c0-.42-.2-.82-.54-1.06-.34-.25-.78-.32-1.18-.19l-19.02,6.13c-.54.17-.91.68-.91,1.25v20.7c-1.74-1-4.11-1.12-6.3-.13-3.35,1.52-5.03,5.08-3.74,7.93.9,1.98,2.99,3.1,5.3,3.1,1.03,0,2.1-.22,3.12-.69,1.58-.72,2.84-1.9,3.56-3.34.25-.5.41-1.01.51-1.52.1-.18.17-.38.17-.61v-17.51l16.39-5.58v12.2c-1.74-1-4.11-1.12-6.3-.13-1.58.72-2.84,1.9-3.56,3.34-.76,1.53-.83,3.16-.18,4.59.65,1.43,1.91,2.46,3.57,2.89.56.15,1.13.22,1.72.22,1.05,0,2.13-.23,3.14-.69,2.2-1,3.67-2.87,4.06-4.84.11-.19.18-.4.18-.63V6.79ZM19.01,39.32c-.45.9-1.26,1.65-2.29,2.12-2.03.92-4.25.43-4.95-1.11-.69-1.53.4-3.52,2.43-4.45.69-.31,1.41-.46,2.08-.46,1.29,0,2.41.56,2.87,1.57.31.69.27,1.52-.14,2.33ZM22.04,18.09v-4.2l16.39-5.29v3.91l-16.39,5.58ZM35.73,35.31c-1.03.47-2.13.58-3.1.33-.87-.23-1.53-.74-1.84-1.43-.31-.69-.27-1.52.14-2.33.45-.9,1.26-1.65,2.29-2.12.69-.31,1.41-.46,2.07-.46,1.29,0,2.41.56,2.87,1.57.69,1.53-.4,3.53-2.43,4.45Z"/>
</svg>